<?xml version="1.0" encoding="UTF-8" standalone="no"?>
<svg
   version="1.1"
   viewBox="0.00 0.00 1024.00 1024.00"
   id="svg66"
   sodipodi:docname="icono2.svg"
   inkscape:export-filename="icono2.svg"
   inkscape:export-xdpi="96"
   inkscape:export-ydpi="96"
   inkscape:version="1.2.1 (9c6d41e410, 2022-07-14)"
   xmlns:inkscape="http://www.inkscape.org/namespaces/inkscape"
   xmlns:sodipodi="http://sodipodi.sourceforge.net/DTD/sodipodi-0.dtd"
   xmlns="http://www.w3.org/2000/svg"
   xmlns:svg="http://www.w3.org/2000/svg">
  <defs
     id="defs70" />
  <sodipodi:namedview
     id="namedview68"
     pagecolor="#ffffff"
     bordercolor="#000000"
     borderopacity="0.25"
     inkscape:showpageshadow="2"
     inkscape:pageopacity="0.0"
     inkscape:pagecheckerboard="0"
     inkscape:deskcolor="#d1d1d1"
     showgrid="false"
     inkscape:zoom="0.36253033"
     inkscape:cx="587.53705"
     inkscape:cy="397.20814"
     inkscape:window-width="1366"
     inkscape:window-height="705"
     inkscape:window-x="262"
     inkscape:window-y="1072"
     inkscape:window-maximized="1"
     inkscape:current-layer="svg66" />
  <g
     inkscape:groupmode="layer"
     id="layer1"
     inkscape:label="Blanco">
    <rect
       style="fill:#ffffff;stroke:#ffffff;stroke-width:1.88976;stroke-linecap:round;stroke-linejoin:round;stroke-miterlimit:4.3"
       id="rect353"
       width="846.50665"
       height="815.29907"
       x="79.969521"
       y="78.019051"
       ry="6.9614024" />
  </g>
  <path
     fill="#1c192e"
     d="M 67.580552,0 H 957.16129 C 1036.4211,-8.7085293 1024,63.442968 1024,63.442968 V 973.71163 C 1025.893,974.82348 1014.7221,1024 959.91968,1024 H 63.442968 C 65.597894,1023.461 0,1023.8386 0,959.91968 L -1.3791949,56.546993 C 0.96877797,-10.670508 67.580552,0 67.580552,0 Z M 580.05,280.58 c -0.34339,-0.21882 -0.0995,-0.74856 0.29,-0.63 34.82,11.59 69.49,30.61 95.29,56.88 0.24677,0.25469 0.67784,0.0745 0.67,-0.28 -0.02,-15.19333 -0.0133,-30.37 0.02,-45.53 0,-0.56667 -0.09,-1.06333 -0.27,-1.49 -0.26667,-0.64667 -0.54333,-1.07667 -0.83,-1.29 C 603.97,236 515.27,221.18 430,242.93 c -34.10667,8.7 -65.41,23.95333 -93.91,45.76 -0.35333,0.26667 -0.31,0.4 0.13,0.4 8.84667,0.007 17.69,-0.07 26.53,-0.23 0.38,-0.007 0.64333,-0.12333 0.79,-0.35 0.20332,-0.31758 0.69515,-0.17706 0.7,0.2 l 0.06,249.05 c 0,0.62667 0.24333,0.74333 0.73,0.35 8.68,-6.88 17.89,-12.97333 27.63,-18.28 0.33333,-0.18 0.54667,-0.45 0.64,-0.81 0.22,-0.83333 0.33,-1.84 0.33,-3.02 0.16,-74.66667 0.12333,-149.33333 -0.11,-224 0,-0.86667 0.1,-1.93333 0.3,-3.2 0.06,-0.36667 0.25333,-0.45667 0.58,-0.27 1.52,0.89 2.46,0.38 3.88,0.38 55.99333,-0.007 111.98333,-0.02 167.97,-0.04 5.66,-0.007 10.69667,-1.76 15.11,-5.26 0.34,-0.26667 0.44333,-0.60333 0.31,-1.01 -0.28,-0.85333 -0.82,-1.52667 -1.62,-2.02 z m -341.9,132.37 c -2.16,6.35 -5.35,12.45 -6.93,18.95 -4.02,16.58 -8.17,31.16 -10.25,49.71 -0.0467,0.37333 0.12,0.56 0.5,0.56 h 36.81 c 0.34667,0 0.54333,-0.16667 0.59,-0.5 6.45333,-43.23333 22.82,-82.22 49.1,-116.96 0.21421,-0.28561 0.33,-0.63299 0.33,-0.99 l -0.11,-52.95 c 0.002,-0.38128 -0.45685,-0.57602 -0.73,-0.31 -11.65333,10.83333 -22.34667,22.60667 -32.08,35.32 -4.61,6.02 -9.02,13.05 -13.35,19.69 -7.99,12.23 -14.19,24.76 -20.16,37.78 -1.10667,2.42 -2.34667,5.65333 -3.72,9.7 z m 531.2,-14.28 c -15.29333,-33.36667 -36.28,-62.68 -62.96,-87.94 -0.38,-0.36 -0.57,-0.27667 -0.57,0.25 l 0.2,51.9 c 0,0.30667 0.0833,0.58667 0.25,0.84 1.17,1.8 2.24,3.72 3.52,5.44 24.90667,33.50667 40.22667,71.04 45.96,112.6 0.04,0.29333 0.20667,0.44 0.5,0.44 l 36.29,-0.03 c 0.36,0 0.52333,-0.17667 0.49,-0.53 -2.49,-28.04 -11.99,-57.48 -23.68,-82.97 z M 449.52,342.8 c 26.49333,-0.13333 52.98333,-0.14667 79.47,-0.04 12.06,0.0533 18.72667,0.11667 20,0.19 53.54,3.28 97.03,49.39 89.21,104 -2.7,18.84 -13.9,38.21 -27.51,50.98 -13.24,12.43333 -28.97333,19.41 -47.2,20.93 -2.21333,0.18667 -8.87667,0.29 -19.99,0.31 -14.75333,0.0267 -29.50333,0.07 -44.25,0.13 -36.08,0.13 -76.88,9.8 -108.15,29.8 -4.89,3.13 -26.96,19.01 -26.9,24.39 0.10667,8.07333 0.17333,16.14333 0.2,24.21 0.006,0.0944 0.11333,0.14533 0.19,0.09 34.81333,-28.47333 74.53667,-44.17667 119.17,-47.11 4.38,-0.28667 11.04,-0.44333 19.98,-0.47 13.34,-0.04 26.67333,-0.08 40,-0.12 9.45333,-0.0267 16.11667,-0.20333 19.99,-0.53 34.22667,-2.9 61.69667,-17.72333 82.41,-44.47 22.34,-28.85 28.45,-66.55 19.22,-101.27 -7.47,-28.14 -25.8,-52.82 -49.66,-69.26 -21.86,-15.05333 -46.19667,-22.41 -73.01,-22.07 -40.89,0.52 -81.88,-0.01 -122.79,0.04 -0.36667,0 -0.55,0.18 -0.55,0.54 l 0.04,193.67 c 0,0.39333 0.19,0.53333 0.57,0.42 l 28.2,-8.49 c 0.65333,-0.2 0.98,-0.64333 0.98,-1.33 l -0.08,-154.08 c 0,-0.30667 0.15333,-0.46 0.46,-0.46 z m 116.29,129.22 c -7.25333,5.26667 -15.45,8.39667 -24.59,9.39 -0.34,0.04 -0.51333,0.23 -0.52,0.57 l -0.35,13.4 c -0.0179,0.54333 0.39363,1.0074 0.94,1.06 19.32,1.82 38.05,-2.04 52.9,-14.99 24.03,-20.94 26.91,-58.18 9.01,-84.11 -10.95,-15.87 -27.91,-26.48 -46.9,-29.88 -4.22667,-0.76 -10.87333,-1.18667 -19.94,-1.28 -20.49333,-0.21333 -41.00333,-0.28667 -61.53,-0.22 -0.37333,0.007 -0.56,0.19667 -0.56,0.57 l 0.18,29.67 c -5e-5,0.29666 0.24339,0.5356 0.54,0.53 21.34,-0.19333 42.71667,-0.23 64.13,-0.11 6.58667,0.04 11.63,0.53667 15.13,1.49 25.59,6.95 37.59,35.3 24.46,58.56 -0.96667,1.72667 -2.91,4.47 -5.83,8.23 -2.34667,3.02667 -4.70333,5.4 -7.07,7.12 z M 301.37,426.25 c -12.56,32.63333 -17.88667,65.9 -15.98,99.8 1,17.85 4.55,35.3 10.2,52.21 2.49333,7.48 5.59333,14.73 9.3,21.75 0.15955,0.28475 0.57983,0.24711 0.67,-0.06 3.56,-11.01333 9.32,-20.70667 17.28,-29.08 0.21045,-0.22305 0.3191,-0.52003 0.3,-0.82 -0.07,-1.06 0.09,-2.01 -0.29,-3 -11.56,-30.5 -12.88,-65.17 -5.7,-96.86 2.91,-12.85 7.97,-25.89 13.03,-39.66 1.47333,-4.02 2.39667,-8.52 2.77,-13.5 0.0267,-0.32667 -0.0467,-0.63 -0.22,-0.91 -1.60667,-2.63333 -3.29,-5.21667 -5.05,-7.75 -1.83333,-2.63333 -3.49,-5.35333 -4.97,-8.16 -1.40667,-2.65333 -2.82667,-5.34 -4.26,-8.06 -0.16843,-0.31506 -0.61604,-0.32625 -0.8,-0.02 -5.85333,9.76667 -11.28,21.14 -16.28,34.12 z M 504.23,611.02 700.45,611 c 0.40181,1.6e-4 0.78566,-0.16642 1.06,-0.46 0.82667,-0.86667 1.74,-2.05 2.74,-3.55 7.26,-10.82667 12.58,-22.06667 15.96,-33.72 3.86667,-13.32667 6.28,-26.92333 7.24,-40.79 0.98667,-14.22 1.14,-26.55 0.46,-36.99 -2.21333,-34.18 -11.86,-66.66667 -28.94,-97.46 -0.14667,-0.26667 -0.27333,-0.25333 -0.38,0.04 -1.18,3.32667 -2.44,6.62333 -3.78,9.89 -1.71,4.18 -4.59,8.69 -6.53,13.27 -0.64,1.51333 -0.93667,3.16667 -0.89,4.96 0.10667,3.85333 0.16,7.72 0.16,11.6 0,1.90667 0.32667,3.76 0.98,5.56 3.42667,9.43333 6.12333,18.27667 8.09,26.53 6.58,27.6 6.47,58.48 -2.76,85.87 -2.74,8.13333 -7.49,14.84333 -14.25,20.13 -2.28,1.78 -4.66,3.12 -7.75,3.12 -65.62,0.06 -131.14333,0.0633 -196.57,0.01 -0.55228,0 -1,0.44772 -1,1 l -0.02,220.12 c -10e-4,0.48557 0.37074,0.88835 0.85,0.92 l 27.28,1.79 c 0.5794,0.0407 1.07142,-0.41918 1.07,-1 V 611.78 c 0,-0.41974 0.34026,-0.76 0.76,-0.76 z M 218.75,507.89 c -0.30771,-5e-5 -0.55559,0.25235 -0.55,0.56 l 0.41,25.98 c 0.005,0.29984 0.25011,0.54005 0.55,0.54 l 37.3,0.02 c 0.30771,5e-5 0.55559,-0.25235 0.55,-0.56 l -0.35,-26.06 c -0.005,-0.29984 -0.25011,-0.54005 -0.55,-0.54 z m 539.72,-0.02 c -0.17121,0 -0.31,0.13879 -0.31,0.31 l -0.3,26.52 c 0,0.17121 0.13879,0.31 0.31,0.31 l 37.61,-0.02 c 0.17121,0 0.31,-0.13879 0.31,-0.31 L 796,508.15 c 0,-0.17121 -0.13879,-0.31 -0.31,-0.31 z M 307.58,667.64 C 283.18,636.31 267.23,600.45 260,560.72 c -0.058,-0.31882 -0.33594,-0.5504 -0.66,-0.55 l -36.65,-0.1 c -0.34,0 -0.48,0.16667 -0.42,0.5 11.2,63.66 39.63667,118.13667 85.31,163.43 0.26776,0.25994 0.71604,0.0768 0.71,-0.29 l 0.04,-53.9 c 1.2e-4,-0.78987 -0.2641,-1.55435 -0.75,-2.17 z m 438.84,-74.7 c -2.85,7.45 -5.03,14.27 -8.16,20.74 -2.97,6.15 -5.61,12.5 -8.95,18.25 -3.75333,6.46 -7.6,12.86667 -11.54,19.22 -3.16,5.1 -7.46,10.42 -10.98,15.87 -0.58121,0.90074 -0.89023,1.9528 -0.89,3.03 l 0.14,53.24 c 0,0.55333 0.19333,0.63 0.58,0.23 3.78667,-3.94 7.59,-7.94 11.41,-12 36.12,-38.45 60.49,-86.36 71.95,-137.76 0.94,-4.2 1.6,-8.5 1.98,-12.9 0.0333,-0.37333 -0.13667,-0.56 -0.51,-0.56 l -36.06,-0.27 c -0.33328,-0.004 -0.6212,0.23701 -0.68,0.57 -2.24,12.94 -5.00333,23.72 -8.29,32.34 z m -325.63,196.7 c 8.84,2.63 18.65,5.43 27.85,6.83 0.38,0.06 0.57,-0.10333 0.57,-0.49 l -0.22,-201.53 c 0,-0.22667 -0.11333,-0.32667 -0.34,-0.3 -9.82,0.98667 -19.46,2.88 -28.92,5.68 -0.25465,0.0786 -0.42876,0.31349 -0.43,0.58 l 0.02,187.27 c 0,1.02 0.49,1.67333 1.47,1.96 z m -54.68,-23.39 26.8,13.08 c 0.28352,0.13968 0.61579,-0.064 0.62,-0.38 0.26,-54.66667 0.25333,-109.4 -0.02,-164.2 -0.007,-1.66 -0.12667,-3.62667 -0.36,-5.9 -0.0333,-0.36 -0.20333,-0.45 -0.51,-0.27 -5.38,3.07 -28.5,17.54 -28.49,23.67 0.10667,43.68 0.14,87.35 0.1,131.01 -8.9e-4,1.27183 0.72089,2.4321 1.86,2.99 z M 661.69,646.87 c 0.2603,-0.51004 -0.10739,-1.11565 -0.68,-1.12 l -129.24,-0.02 c -0.34,0 -0.51,0.17 -0.51,0.51 l -0.04,27.54 c 0,0.36667 0.18333,0.55 0.55,0.55 30.6,-0.0133 61.2,-0.0333 91.8,-0.06 8.37,-0.01 14.66,-0.91 20.72,-5.7 6.98,-5.51333 12.78,-12.74667 17.4,-21.7 z M 555.47,795.73 c 0.007,0.50667 0.26333,0.73333 0.77,0.68 3.95333,-0.43333 8.04,-1.09 12.26,-1.97 39.12,-8.14667 74.75667,-24 106.91,-47.56 0.26667,-0.19333 0.44,-0.45 0.52,-0.77 0.23333,-0.94 0.35333,-1.89333 0.36,-2.86 0.08,-15.25333 0,-30.49667 -0.24,-45.73 -0.0141,-0.3594 -0.44446,-0.53405 -0.69,-0.28 -27.95333,27.78 -61.25667,46.21667 -99.91,55.31 -5.70667,1.34 -12.20667,2.74333 -19.5,4.21 -0.36148,0.0717 -0.62142,0.38617 -0.62,0.75 z"
     id="path34"
     style="display:inline;fill:#000000;fill-opacity:1"
     inkscape:label="fondo"
     inkscape:export-filename="fondoNegro.png"
     inkscape:export-xdpi="96"
     inkscape:export-ydpi="96"
     sodipodi:nodetypes="ccccccccccccccccccccccccccccccccccccccssccccccccccccccccccccccccccsccccccccccccccccccccccccccccccccccccccccccccccccccccccccccccccccccccscccccccccccsccccccccccccccccccccsccccccccccccccccccccccccccccccccccccccccccccccccccccccccccccc" />
  <rect
     style="display:none;fill:#000000;fill-opacity:1;stroke:#ffffff;stroke-width:1.60896;stroke-linecap:round;stroke-linejoin:round;stroke-miterlimit:4.3"
     id="rect895"
     width="620.53223"
     height="624.43323"
     x="198.80817"
     y="206.31293"
     ry="6.1226673"
     inkscape:export-filename=".\FondoNegroGrande.png"
     inkscape:export-xdpi="96"
     inkscape:export-ydpi="96" />
</svg>
