<?xml version="1.0" encoding="UTF-8" standalone="no"?>
<!DOCTYPE svg PUBLIC "-//W3C//DTD SVG 1.1//EN" "http://www.w3.org/Graphics/SVG/1.1/DTD/svg11.dtd">
<svg xmlns="http://www.w3.org/2000/svg" version="1.1" viewBox="0.00 0.00 1024.00 1024.00">
<g stroke-width="2.00" fill="none" stroke-linecap="butt">
<path stroke="#898a86" vector-effect="non-scaling-stroke" d="
  M 363.93 335.36
  Q 369.35 330.65 375.38 326.59
  C 442.50 281.32 527.11 271.22 601.78 303.96
  C 678.80 337.74 730.76 406.75 742.11 490.05
  Q 742.19 490.58 742.72 490.58
  L 777.51 490.55
  A 0.62 0.61 86.7 0 0 778.12 489.86
  Q 768.36 402.45 711.07 338.07
  C 659.83 280.47 585.28 247.66 508.25 248.00
  C 425.44 248.36 344.74 287.87 294.65 354.40
  Q 273.05 383.09 259.38 416.68
  Q 255.77 425.54 252.89 435.58
  C 247.77 453.48 243.76 471.35 242.31 489.98
  Q 242.28 490.46 242.76 490.46
  L 277.30 490.66
  Q 277.90 490.66 277.98 490.07
  Q 286.87 423.09 329.34 370.85
  C 329.97 370.08 330.63 369.48 331.72 369.47
  Q 442.61 369.42 553.50 369.52
  C 611.32 369.57 656.53 419.73 669.35 472.48
  Q 669.50 473.10 670.13 473.05
  L 703.17 470.12
  A 0.79 0.79 0.0 0 0 703.87 469.16
  Q 689.56 406.72 641.34 366.69
  C 622.73 351.25 599.64 339.94 575.70 336.62
  Q 568.64 335.64 555.75 335.61
  Q 459.87 335.32 364.05 335.66
  A 0.17 0.17 0.0 0 1 363.93 335.36"
/>
<path stroke="#83827d" vector-effect="non-scaling-stroke" d="
  M 403.54 461.95
  L 403.49 698.27
  A 2.54 2.53 -75.1 0 0 404.76 700.47
  Q 419.01 708.66 433.96 715.51
  Q 435.21 716.08 435.21 714.71
  L 435.23 500.97"
/>
<path stroke="#898a86" vector-effect="non-scaling-stroke" d="
  M 435.23 500.97
  L 435.21 432.28
  Q 435.21 431.78 435.71 431.78
  Q 481.00 431.74 526.50 431.71
  Q 536.89 431.70 540.25 432.03
  C 571.93 435.13 595.43 464.26 595.79 495.46
  C 596.01 514.59 587.37 532.11 574.70 546.05"
/>
<path stroke="#83827d" vector-effect="non-scaling-stroke" d="
  M 574.70 546.05
  C 559.44 560.82 541.56 565.79 520.75 565.53
  Q 520.27 565.53 520.27 566.01
  L 520.25 599.50
  Q 520.25 599.99 520.74 600.01
  C 564.63 602.11 604.01 578.90 622.09 538.67"
/>
<path stroke="#898a86" vector-effect="non-scaling-stroke" d="
  M 622.09 538.67
  C 650.30 477.19 608.17 397.92 537.25 397.93
  Q 470.54 397.94 403.95 397.92
  Q 403.57 397.92 403.57 398.30
  L 403.54 461.95"
/>
<path stroke="#f8f0dc" vector-effect="non-scaling-stroke" d="
  M 622.09 538.67
  Q 620.53 537.76 620.53 539.94
  A 0.20 0.19 -75.6 0 1 620.25 540.11
  Q 620.13 540.05 620.01 539.98
  Q 619.73 539.82 619.51 540.05
  Q 617.68 541.93 615.10 542.21
  Q 614.86 542.23 614.86 542.47
  Q 614.86 542.61 614.86 542.75
  A 0.40 0.40 0.0 0 1 614.27 543.12
  L 613.75 542.83
  Q 613.40 542.65 613.09 542.89
  Q 611.09 544.47 608.54 544.09
  Q 608.05 544.01 608.10 544.50
  Q 608.33 546.68 606.79 548.18
  A 1.48 1.47 18.6 0 1 605.98 548.58
  Q 604.44 548.80 603.47 549.97
  Q 602.95 550.59 602.79 549.80
  L 602.62 548.99
  Q 602.56 548.71 602.30 548.60
  L 600.37 547.84
  A 0.39 0.38 -72.7 0 1 600.14 547.39
  Q 600.71 545.28 598.94 545.82
  A 1.76 1.74 88.5 0 0 597.76 547.07
  Q 597.24 549.15 594.88 548.82
  Q 594.49 548.77 594.13 548.92
  Q 591.90 549.85 590.34 548.33
  Q 588.33 546.40 588.93 543.10
  Q 589.02 542.64 588.75 542.27
  L 586.90 539.62
  Q 586.69 539.32 586.40 539.53
  Q 583.87 541.32 581.24 543.04
  Q 581.13 543.12 579.30 544.54
  Q 577.30 546.08 574.70 546.05"
/>
<path stroke="#f8f0dc" vector-effect="non-scaling-stroke" d="
  M 435.23 500.97
  Q 434.64 499.13 434.55 502.47
  Q 434.53 503.17 434.27 502.52
  Q 433.99 501.84 434.18 500.98
  Q 434.27 500.60 434.03 500.91
  Q 433.90 501.07 433.82 501.21
  Q 433.64 501.53 433.45 501.21
  L 430.05 495.63
  Q 429.83 495.28 429.46 495.13
  Q 429.06 494.96 428.69 494.81
  Q 428.29 494.66 428.10 494.27
  Q 427.65 493.39 427.51 492.34
  Q 427.46 491.97 427.08 491.95
  L 425.61 491.88
  Q 425.12 491.86 425.14 491.36
  L 425.16 490.69
  A 0.45 0.45 0.0 0 0 424.31 490.47
  L 423.94 491.21
  Q 423.60 491.90 423.17 491.25
  Q 422.62 490.40 421.61 490.36
  A 0.55 0.54 -9.5 0 1 421.11 490.01
  L 420.31 487.95
  Q 420.10 487.40 419.52 487.30
  Q 418.38 487.11 417.94 486.18
  Q 417.66 485.60 417.12 485.96
  Q 415.80 486.85 415.06 485.56
  Q 414.31 484.23 414.05 481.69
  Q 414.00 481.23 413.55 481.09
  Q 411.79 480.58 410.01 479.97
  Q 408.14 479.33 408.64 477.81
  Q 408.75 477.48 408.60 477.16
  L 408.28 476.48
  A 0.09 0.09 0.0 0 0 408.11 476.50
  L 408.02 476.93
  A 0.14 0.13 26.7 0 1 407.80 477.00
  L 407.32 476.58
  A 0.12 0.12 0.0 0 0 407.13 476.69
  Q 407.16 476.96 407.02 477.11
  A 0.21 0.20 -22.8 0 1 406.67 476.97
  L 406.67 476.50
  Q 406.67 475.74 406.42 476.42
  Q 406.32 476.72 406.59 477.00
  Q 406.51 477.49 406.14 477.87
  A 0.33 0.33 0.0 0 1 405.64 477.85
  L 405.08 477.15
  Q 404.82 476.82 404.88 477.23
  Q 404.95 477.64 404.77 477.93
  Q 404.53 478.35 404.50 477.87
  L 403.54 461.95"
/>
<path stroke="#83827d" vector-effect="non-scaling-stroke" d="
  M 348.10 398.81
  C 322.31 438.26 308.08 481.41 309.63 528.91
  Q 309.65 529.47 310.22 529.48
  L 342.26 529.68
  A 0.67 0.66 0.4 0 0 342.93 529.03
  Q 343.09 517.35 344.14 505.52
  Q 347.94 462.40 372.33 427.05
  C 374.62 423.73 374.45 421.37 374.48 417.49
  Q 374.55 408.29 374.49 398.99
  Q 374.48 398.49 373.99 398.49
  L 348.98 398.33
  Q 348.41 398.33 348.10 398.81"
/>
<path stroke="#83827d" vector-effect="non-scaling-stroke" d="
  M 499.17 495.32
  C 509.30 495.00 527.04 492.28 523.71 509.24
  Q 522.05 517.66 519.86 525.94
  Q 519.61 526.87 520.56 527.07
  Q 527.95 528.59 535.33 527.10
  C 561.02 521.89 565.98 488.88 548.38 472.33
  C 537.16 461.77 526.75 461.84 509.74 461.75
  Q 489.18 461.63 468.53 461.81
  Q 468.07 461.81 468.07 462.27
  L 468.02 723.95
  A 1.59 1.58 4.0 0 0 469.39 725.52
  L 497.36 729.34
  A 0.88 0.88 0.0 0 0 498.36 728.47
  Q 498.37 615.57 498.26 502.75
  Q 498.26 498.82 498.56 495.88
  Q 498.62 495.34 499.17 495.32"
/>
<path stroke="#83827d" vector-effect="non-scaling-stroke" d="
  M 696.2071 557.1133
  A 24.51 24.16 23.5 0 0 683.3638 525.1838
  A 24.51 24.16 23.5 0 0 651.2529 537.5667
  A 24.51 24.16 23.5 0 0 664.0962 569.4962
  A 24.51 24.16 23.5 0 0 696.2071 557.1133"
/>
<path stroke="#83827d" vector-effect="non-scaling-stroke" d="
  M 720.88 610.53
  Q 717.96 616.75 715.54 621.01
  C 708.83 632.81 700.88 645.23 692.60 655.84
  C 648.09 712.86 582.70 743.80 510.50 744.52
  Q 478.07 744.85 446.95 735.84
  Q 362.64 711.43 314.70 638.26
  Q 281.76 588.00 277.45 527.83
  Q 277.41 527.25 276.83 527.25
  L 242.46 527.19
  Q 242.04 527.19 242.02 527.60
  Q 241.89 530.20 242.07 532.75
  C 249.09 633.95 312.99 722.90 406.91 761.48
  Q 462.12 784.16 524.26 781.19
  Q 585.67 778.27 637.84 750.07
  C 712.87 709.52 763.01 638.48 775.80 554.01
  Q 777.61 542.04 778.02 527.78
  Q 778.04 527.25 777.51 527.25
  L 742.55 527.20
  Q 742.39 527.20 742.38 527.36
  Q 739.44 570.99 720.88 610.53"
/>
<path stroke="#83827d" vector-effect="non-scaling-stroke" d="
  M 355.51 574.61
  Q 353.85 570.72 352.23 566.68
  A 0.83 0.82 -13.6 0 0 351.38 566.17
  L 318.55 569.33
  Q 317.76 569.41 318.00 570.17
  Q 334.16 621.34 373.49 657.71
  A 0.59 0.59 0.0 0 0 374.48 657.28
  Q 374.62 633.88 374.24 610.25
  C 374.22 609.12 374.24 608.42 373.55 607.42
  Q 362.92 591.91 355.51 574.61"
/>
<path stroke="#83827d" vector-effect="non-scaling-stroke" d="
  M 685.39 610.72
  C 686.74 608.39 687.94 605.89 688.60 603.28
  Q 688.74 602.76 688.20 602.69
  L 654.09 598.11
  A 0.75 0.75 0.0 0 0 653.35 598.48
  C 630.84 638.17 587.88 664.62 543.86 672.98
  Q 543.34 673.08 543.34 673.61
  L 543.27 706.47
  Q 543.27 707.39 544.18 707.28
  C 603.89 700.32 655.70 662.25 685.39 610.72"
/>
</g>
<path fill="#141c27" d="
  M 0.00 0.00
  L 1024.00 0.00
  L 1024.00 1024.00
  L 0.00 1024.00
  L 0.00 0.00
  Z
  M 363.93 335.36
  Q 369.35 330.65 375.38 326.59
  C 442.50 281.32 527.11 271.22 601.78 303.96
  C 678.80 337.74 730.76 406.75 742.11 490.05
  Q 742.19 490.58 742.72 490.58
  L 777.51 490.55
  A 0.62 0.61 86.7 0 0 778.12 489.86
  Q 768.36 402.45 711.07 338.07
  C 659.83 280.47 585.28 247.66 508.25 248.00
  C 425.44 248.36 344.74 287.87 294.65 354.40
  Q 273.05 383.09 259.38 416.68
  Q 255.77 425.54 252.89 435.58
  C 247.77 453.48 243.76 471.35 242.31 489.98
  Q 242.28 490.46 242.76 490.46
  L 277.30 490.66
  Q 277.90 490.66 277.98 490.07
  Q 286.87 423.09 329.34 370.85
  C 329.97 370.08 330.63 369.48 331.72 369.47
  Q 442.61 369.42 553.50 369.52
  C 611.32 369.57 656.53 419.73 669.35 472.48
  Q 669.50 473.10 670.13 473.05
  L 703.17 470.12
  A 0.79 0.79 0.0 0 0 703.87 469.16
  Q 689.56 406.72 641.34 366.69
  C 622.73 351.25 599.64 339.94 575.70 336.62
  Q 568.64 335.64 555.75 335.61
  Q 459.87 335.32 364.05 335.66
  A 0.17 0.17 0.0 0 1 363.93 335.36
  Z
  M 403.54 461.95
  L 403.49 698.27
  A 2.54 2.53 -75.1 0 0 404.76 700.47
  Q 419.01 708.66 433.96 715.51
  Q 435.21 716.08 435.21 714.71
  L 435.23 500.97
  L 435.21 432.28
  Q 435.21 431.78 435.71 431.78
  Q 481.00 431.74 526.50 431.71
  Q 536.89 431.70 540.25 432.03
  C 571.93 435.13 595.43 464.26 595.79 495.46
  C 596.01 514.59 587.37 532.11 574.70 546.05
  C 559.44 560.82 541.56 565.79 520.75 565.53
  Q 520.27 565.53 520.27 566.01
  L 520.25 599.50
  Q 520.25 599.99 520.74 600.01
  C 564.63 602.11 604.01 578.90 622.09 538.67
  C 650.30 477.19 608.17 397.92 537.25 397.93
  Q 470.54 397.94 403.95 397.92
  Q 403.57 397.92 403.57 398.30
  L 403.54 461.95
  Z
  M 348.10 398.81
  C 322.31 438.26 308.08 481.41 309.63 528.91
  Q 309.65 529.47 310.22 529.48
  L 342.26 529.68
  A 0.67 0.66 0.4 0 0 342.93 529.03
  Q 343.09 517.35 344.14 505.52
  Q 347.94 462.40 372.33 427.05
  C 374.62 423.73 374.45 421.37 374.48 417.49
  Q 374.55 408.29 374.49 398.99
  Q 374.48 398.49 373.99 398.49
  L 348.98 398.33
  Q 348.41 398.33 348.10 398.81
  Z
  M 499.17 495.32
  C 509.30 495.00 527.04 492.28 523.71 509.24
  Q 522.05 517.66 519.86 525.94
  Q 519.61 526.87 520.56 527.07
  Q 527.95 528.59 535.33 527.10
  C 561.02 521.89 565.98 488.88 548.38 472.33
  C 537.16 461.77 526.75 461.84 509.74 461.75
  Q 489.18 461.63 468.53 461.81
  Q 468.07 461.81 468.07 462.27
  L 468.02 723.95
  A 1.59 1.58 4.0 0 0 469.39 725.52
  L 497.36 729.34
  A 0.88 0.88 0.0 0 0 498.36 728.47
  Q 498.37 615.57 498.26 502.75
  Q 498.26 498.82 498.56 495.88
  Q 498.62 495.34 499.17 495.32
  Z
  M 696.2071 557.1133
  A 24.51 24.16 23.5 0 0 683.3638 525.1838
  A 24.51 24.16 23.5 0 0 651.2529 537.5667
  A 24.51 24.16 23.5 0 0 664.0962 569.4962
  A 24.51 24.16 23.5 0 0 696.2071 557.1133
  Z
  M 720.88 610.53
  Q 717.96 616.75 715.54 621.01
  C 708.83 632.81 700.88 645.23 692.60 655.84
  C 648.09 712.86 582.70 743.80 510.50 744.52
  Q 478.07 744.85 446.95 735.84
  Q 362.64 711.43 314.70 638.26
  Q 281.76 588.00 277.45 527.83
  Q 277.41 527.25 276.83 527.25
  L 242.46 527.19
  Q 242.04 527.19 242.02 527.60
  Q 241.89 530.20 242.07 532.75
  C 249.09 633.95 312.99 722.90 406.91 761.48
  Q 462.12 784.16 524.26 781.19
  Q 585.67 778.27 637.84 750.07
  C 712.87 709.52 763.01 638.48 775.80 554.01
  Q 777.61 542.04 778.02 527.78
  Q 778.04 527.25 777.51 527.25
  L 742.55 527.20
  Q 742.39 527.20 742.38 527.36
  Q 739.44 570.99 720.88 610.53
  Z
  M 355.51 574.61
  Q 353.85 570.72 352.23 566.68
  A 0.83 0.82 -13.6 0 0 351.38 566.17
  L 318.55 569.33
  Q 317.76 569.41 318.00 570.17
  Q 334.16 621.34 373.49 657.71
  A 0.59 0.59 0.0 0 0 374.48 657.28
  Q 374.62 633.88 374.24 610.25
  C 374.22 609.12 374.24 608.42 373.55 607.42
  Q 362.92 591.91 355.51 574.61
  Z
  M 685.39 610.72
  C 686.74 608.39 687.94 605.89 688.60 603.28
  Q 688.74 602.76 688.20 602.69
  L 654.09 598.11
  A 0.75 0.75 0.0 0 0 653.35 598.48
  C 630.84 638.17 587.88 664.62 543.86 672.98
  Q 543.34 673.08 543.34 673.61
  L 543.27 706.47
  Q 543.27 707.39 544.18 707.28
  C 603.89 700.32 655.70 662.25 685.39 610.72
  Z"
/>
<path fill="#fef8e5" d="
  M 363.93 335.36
  A 0.17 0.17 0.0 0 0 364.05 335.66
  Q 459.87 335.32 555.75 335.61
  Q 568.64 335.64 575.70 336.62
  C 599.64 339.94 622.73 351.25 641.34 366.69
  Q 689.56 406.72 703.87 469.16
  A 0.79 0.79 0.0 0 1 703.17 470.12
  L 670.13 473.05
  Q 669.50 473.10 669.35 472.48
  C 656.53 419.73 611.32 369.57 553.50 369.52
  Q 442.61 369.42 331.72 369.47
  C 330.63 369.48 329.97 370.08 329.34 370.85
  Q 286.87 423.09 277.98 490.07
  Q 277.90 490.66 277.30 490.66
  L 242.76 490.46
  Q 242.28 490.46 242.31 489.98
  C 243.76 471.35 247.77 453.48 252.89 435.58
  Q 255.77 425.54 259.38 416.68
  Q 273.05 383.09 294.65 354.40
  C 344.74 287.87 425.44 248.36 508.25 248.00
  C 585.28 247.66 659.83 280.47 711.07 338.07
  Q 768.36 402.45 778.12 489.86
  A 0.62 0.61 86.7 0 1 777.51 490.55
  L 742.72 490.58
  Q 742.19 490.58 742.11 490.05
  C 730.76 406.75 678.80 337.74 601.78 303.96
  C 527.11 271.22 442.50 281.32 375.38 326.59
  Q 369.35 330.65 363.93 335.36
  Z"
/>
<path fill="#fef8e5" d="
  M 622.09 538.67
  Q 620.53 537.76 620.53 539.94
  A 0.20 0.19 -75.6 0 1 620.25 540.11
  Q 620.13 540.05 620.01 539.98
  Q 619.73 539.82 619.51 540.05
  Q 617.68 541.93 615.10 542.21
  Q 614.86 542.23 614.86 542.47
  Q 614.86 542.61 614.86 542.75
  A 0.40 0.40 0.0 0 1 614.27 543.12
  L 613.75 542.83
  Q 613.40 542.65 613.09 542.89
  Q 611.09 544.47 608.54 544.09
  Q 608.05 544.01 608.10 544.50
  Q 608.33 546.68 606.79 548.18
  A 1.48 1.47 18.6 0 1 605.98 548.58
  Q 604.44 548.80 603.47 549.97
  Q 602.95 550.59 602.79 549.80
  L 602.62 548.99
  Q 602.56 548.71 602.30 548.60
  L 600.37 547.84
  A 0.39 0.38 -72.7 0 1 600.14 547.39
  Q 600.71 545.28 598.94 545.82
  A 1.76 1.74 88.5 0 0 597.76 547.07
  Q 597.24 549.15 594.88 548.82
  Q 594.49 548.77 594.13 548.92
  Q 591.90 549.85 590.34 548.33
  Q 588.33 546.40 588.93 543.10
  Q 589.02 542.64 588.75 542.27
  L 586.90 539.62
  Q 586.69 539.32 586.40 539.53
  Q 583.87 541.32 581.24 543.04
  Q 581.13 543.12 579.30 544.54
  Q 577.30 546.08 574.70 546.05
  C 587.37 532.11 596.01 514.59 595.79 495.46
  C 595.43 464.26 571.93 435.13 540.25 432.03
  Q 536.89 431.70 526.50 431.71
  Q 481.00 431.74 435.71 431.78
  Q 435.21 431.78 435.21 432.28
  L 435.23 500.97
  Q 434.64 499.13 434.55 502.47
  Q 434.53 503.17 434.27 502.52
  Q 433.99 501.84 434.18 500.98
  Q 434.27 500.60 434.03 500.91
  Q 433.90 501.07 433.82 501.21
  Q 433.64 501.53 433.45 501.21
  L 430.05 495.63
  Q 429.83 495.28 429.46 495.13
  Q 429.06 494.96 428.69 494.81
  Q 428.29 494.66 428.10 494.27
  Q 427.65 493.39 427.51 492.34
  Q 427.46 491.97 427.08 491.95
  L 425.61 491.88
  Q 425.12 491.86 425.14 491.36
  L 425.16 490.69
  A 0.45 0.45 0.0 0 0 424.31 490.47
  L 423.94 491.21
  Q 423.60 491.90 423.17 491.25
  Q 422.62 490.40 421.61 490.36
  A 0.55 0.54 -9.5 0 1 421.11 490.01
  L 420.31 487.95
  Q 420.10 487.40 419.52 487.30
  Q 418.38 487.11 417.94 486.18
  Q 417.66 485.60 417.12 485.96
  Q 415.80 486.85 415.06 485.56
  Q 414.31 484.23 414.05 481.69
  Q 414.00 481.23 413.55 481.09
  Q 411.79 480.58 410.01 479.97
  Q 408.14 479.33 408.64 477.81
  Q 408.75 477.48 408.60 477.16
  L 408.28 476.48
  A 0.09 0.09 0.0 0 0 408.11 476.50
  L 408.02 476.93
  A 0.14 0.13 26.7 0 1 407.80 477.00
  L 407.32 476.58
  A 0.12 0.12 0.0 0 0 407.13 476.69
  Q 407.16 476.96 407.02 477.11
  A 0.21 0.20 -22.8 0 1 406.67 476.97
  L 406.67 476.50
  Q 406.67 475.74 406.42 476.42
  Q 406.32 476.72 406.59 477.00
  Q 406.51 477.49 406.14 477.87
  A 0.33 0.33 0.0 0 1 405.64 477.85
  L 405.08 477.15
  Q 404.82 476.82 404.88 477.23
  Q 404.95 477.64 404.77 477.93
  Q 404.53 478.35 404.50 477.87
  L 403.54 461.95
  L 403.57 398.30
  Q 403.57 397.92 403.95 397.92
  Q 470.54 397.94 537.25 397.93
  C 608.17 397.92 650.30 477.19 622.09 538.67
  Z"
/>
<path fill="#f1e8d2" d="
  M 309.63 528.91
  C 308.08 481.41 322.31 438.26 348.10 398.81
  Q 348.41 398.33 348.98 398.33
  L 373.99 398.49
  Q 374.48 398.49 374.49 398.99
  Q 374.55 408.29 374.48 417.49
  C 374.45 421.37 374.62 423.73 372.33 427.05
  Q 347.94 462.40 344.14 505.52
  Q 343.09 517.35 342.93 529.03
  A 0.67 0.66 0.4 0 1 342.26 529.68
  L 310.22 529.48
  Q 309.65 529.47 309.63 528.91
  Z"
/>
<path fill="#f1e8d2" d="
  M 498.56 495.88
  Q 498.26 498.82 498.26 502.75
  Q 498.37 615.57 498.36 728.47
  A 0.88 0.88 0.0 0 1 497.36 729.34
  L 469.39 725.52
  A 1.59 1.58 4.0 0 1 468.02 723.95
  L 468.07 462.27
  Q 468.07 461.81 468.53 461.81
  Q 489.18 461.63 509.74 461.75
  C 526.75 461.84 537.16 461.77 548.38 472.33
  C 565.98 488.88 561.02 521.89 535.33 527.10
  Q 527.95 528.59 520.56 527.07
  Q 519.61 526.87 519.86 525.94
  Q 522.05 517.66 523.71 509.24
  C 527.04 492.28 509.30 495.00 499.17 495.32
  Q 498.62 495.34 498.56 495.88
  Z"
/>
<path fill="#f1e8d2" d="
  M 403.54 461.95
  L 404.50 477.87
  Q 404.53 478.35 404.77 477.93
  Q 404.95 477.64 404.88 477.23
  Q 404.82 476.82 405.08 477.15
  L 405.64 477.85
  A 0.33 0.33 0.0 0 0 406.14 477.87
  Q 406.51 477.49 406.59 477.00
  Q 406.32 476.72 406.42 476.42
  Q 406.67 475.74 406.67 476.50
  L 406.67 476.97
  A 0.21 0.20 -22.8 0 0 407.02 477.11
  Q 407.16 476.96 407.13 476.69
  A 0.12 0.12 0.0 0 1 407.32 476.58
  L 407.80 477.00
  A 0.14 0.13 26.7 0 0 408.02 476.93
  L 408.11 476.50
  A 0.09 0.09 0.0 0 1 408.28 476.48
  L 408.60 477.16
  Q 408.75 477.48 408.64 477.81
  Q 408.14 479.33 410.01 479.97
  Q 411.79 480.58 413.55 481.09
  Q 414.00 481.23 414.05 481.69
  Q 414.31 484.23 415.06 485.56
  Q 415.80 486.85 417.12 485.96
  Q 417.66 485.60 417.94 486.18
  Q 418.38 487.11 419.52 487.30
  Q 420.10 487.40 420.31 487.95
  L 421.11 490.01
  A 0.55 0.54 -9.5 0 0 421.61 490.36
  Q 422.62 490.40 423.17 491.25
  Q 423.60 491.90 423.94 491.21
  L 424.31 490.47
  A 0.45 0.45 0.0 0 1 425.16 490.69
  L 425.14 491.36
  Q 425.12 491.86 425.61 491.88
  L 427.08 491.95
  Q 427.46 491.97 427.51 492.34
  Q 427.65 493.39 428.10 494.27
  Q 428.29 494.66 428.69 494.81
  Q 429.06 494.96 429.46 495.13
  Q 429.83 495.28 430.05 495.63
  L 433.45 501.21
  Q 433.64 501.53 433.82 501.21
  Q 433.90 501.07 434.03 500.91
  Q 434.27 500.60 434.18 500.98
  Q 433.99 501.84 434.27 502.52
  Q 434.53 503.17 434.55 502.47
  Q 434.64 499.13 435.23 500.97
  L 435.21 714.71
  Q 435.21 716.08 433.96 715.51
  Q 419.01 708.66 404.76 700.47
  A 2.54 2.53 -75.1 0 1 403.49 698.27
  L 403.54 461.95
  Z"
/>
<ellipse fill="#f1e8d2" cx="0.00" cy="0.00" transform="translate(673.73,547.34) rotate(23.5)" rx="24.51" ry="24.16"/>
<path fill="#f1e8d2" d="
  M 720.88 610.53
  Q 739.44 570.99 742.38 527.36
  Q 742.39 527.20 742.55 527.20
  L 777.51 527.25
  Q 778.04 527.25 778.02 527.78
  Q 777.61 542.04 775.80 554.01
  C 763.01 638.48 712.87 709.52 637.84 750.07
  Q 585.67 778.27 524.26 781.19
  Q 462.12 784.16 406.91 761.48
  C 312.99 722.90 249.09 633.95 242.07 532.75
  Q 241.89 530.20 242.02 527.60
  Q 242.04 527.19 242.46 527.19
  L 276.83 527.25
  Q 277.41 527.25 277.45 527.83
  Q 281.76 588.00 314.70 638.26
  Q 362.64 711.43 446.95 735.84
  Q 478.07 744.85 510.50 744.52
  C 582.70 743.80 648.09 712.86 692.60 655.84
  C 700.88 645.23 708.83 632.81 715.54 621.01
  Q 717.96 616.75 720.88 610.53
  Z"
/>
<path fill="#f1e8d2" d="
  M 622.09 538.67
  C 604.01 578.90 564.63 602.11 520.74 600.01
  Q 520.25 599.99 520.25 599.50
  L 520.27 566.01
  Q 520.27 565.53 520.75 565.53
  C 541.56 565.79 559.44 560.82 574.70 546.05
  Q 577.30 546.08 579.30 544.54
  Q 581.13 543.12 581.24 543.04
  Q 583.87 541.32 586.40 539.53
  Q 586.69 539.32 586.90 539.62
  L 588.75 542.27
  Q 589.02 542.64 588.93 543.10
  Q 588.33 546.40 590.34 548.33
  Q 591.90 549.85 594.13 548.92
  Q 594.49 548.77 594.88 548.82
  Q 597.24 549.15 597.76 547.07
  A 1.76 1.74 88.5 0 1 598.94 545.82
  Q 600.71 545.28 600.14 547.39
  A 0.39 0.38 -72.7 0 0 600.37 547.84
  L 602.30 548.60
  Q 602.56 548.71 602.62 548.99
  L 602.79 549.80
  Q 602.95 550.59 603.47 549.97
  Q 604.44 548.80 605.98 548.58
  A 1.48 1.47 18.6 0 0 606.79 548.18
  Q 608.33 546.68 608.10 544.50
  Q 608.05 544.01 608.54 544.09
  Q 611.09 544.47 613.09 542.89
  Q 613.40 542.65 613.75 542.83
  L 614.27 543.12
  A 0.40 0.40 0.0 0 0 614.86 542.75
  Q 614.86 542.61 614.86 542.47
  Q 614.86 542.23 615.10 542.21
  Q 617.68 541.93 619.51 540.05
  Q 619.73 539.82 620.01 539.98
  Q 620.13 540.05 620.25 540.11
  A 0.20 0.19 -75.6 0 0 620.53 539.94
  Q 620.53 537.76 622.09 538.67
  Z"
/>
<path fill="#f1e8d2" d="
  M 355.51 574.61
  Q 362.92 591.91 373.55 607.42
  C 374.24 608.42 374.22 609.12 374.24 610.25
  Q 374.62 633.88 374.48 657.28
  A 0.59 0.59 0.0 0 1 373.49 657.71
  Q 334.16 621.34 318.00 570.17
  Q 317.76 569.41 318.55 569.33
  L 351.38 566.17
  A 0.83 0.82 -13.6 0 1 352.23 566.68
  Q 353.85 570.72 355.51 574.61
  Z"
/>
<path fill="#f1e8d2" d="
  M 688.60 603.28
  C 687.94 605.89 686.74 608.39 685.39 610.72
  C 655.70 662.25 603.89 700.32 544.18 707.28
  Q 543.27 707.39 543.27 706.47
  L 543.34 673.61
  Q 543.34 673.08 543.86 672.98
  C 587.88 664.62 630.84 638.17 653.35 598.48
  A 0.75 0.75 0.0 0 1 654.09 598.11
  L 688.20 602.69
  Q 688.74 602.76 688.60 603.28
  Z"
/>
</svg>
