<?xml version="1.0" encoding="UTF-8" standalone="no"?>
<svg
   version="1.1"
   viewBox="0 0 1048576 1048576"
   id="svg66"
   width="1048576"
   height="1048576"
   xmlns="http://www.w3.org/2000/svg"
   xmlns:svg="http://www.w3.org/2000/svg">
  <defs
     id="defs70" />
  <g
     stroke-width="2"
     fill="none"
     stroke-linecap="butt"
     id="g32"
     style="display:none">
    <path
       stroke="#8e8787"
       vector-effect="non-scaling-stroke"
       d="m 580.05,280.58 a 0.35,0.35 0 0 1 0.29,-0.63 c 34.82,11.59 69.49,30.61 95.29,56.88 a 0.39,0.39 0 0 0 0.67,-0.28 q -0.03,-22.79 0.02,-45.53 0,-0.85 -0.27,-1.49 -0.4,-0.97 -0.83,-1.29 C 603.97,236 515.27,221.18 430,242.93 q -51.16,13.05 -93.91,45.76 -0.53,0.4 0.13,0.4 13.27,0.01 26.53,-0.23 0.57,-0.01 0.79,-0.35 a 0.38,0.38 0 0 1 0.7,0.2 l 0.06,249.05 q 0,0.94 0.73,0.35 13.02,-10.32 27.63,-18.28 0.5,-0.27 0.64,-0.81 0.33,-1.25 0.33,-3.02 0.24,-112 -0.11,-224 0,-1.3 0.3,-3.2 0.09,-0.55 0.58,-0.27 c 1.52,0.89 2.46,0.38 3.88,0.38 q 83.99,-0.01 167.97,-0.04 8.49,-0.01 15.11,-5.26 0.51,-0.4 0.31,-1.01 -0.42,-1.28 -1.62,-2.02"
       id="path2" />
    <path
       stroke="#8e8787"
       vector-effect="non-scaling-stroke"
       d="m 238.15,412.95 c -2.16,6.35 -5.35,12.45 -6.93,18.95 -4.02,16.58 -8.17,31.16 -10.25,49.71 q -0.07,0.56 0.5,0.56 h 36.81 q 0.52,0 0.59,-0.5 9.68,-64.85 49.1,-116.96 a 1.65,1.65 0 0 0 0.33,-0.99 l -0.11,-52.95 a 0.43,0.43 0 0 0 -0.73,-0.31 q -17.48,16.25 -32.08,35.32 c -4.61,6.02 -9.02,13.05 -13.35,19.69 -7.99,12.23 -14.19,24.76 -20.16,37.78 q -1.66,3.63 -3.72,9.7"
       id="path4" />
    <path
       stroke="#8e8787"
       vector-effect="non-scaling-stroke"
       d="m 769.35,398.67 q -22.94,-50.05 -62.96,-87.94 -0.57,-0.54 -0.57,0.25 l 0.2,51.9 q 0,0.46 0.25,0.84 c 1.17,1.8 2.24,3.72 3.52,5.44 q 37.36,50.26 45.96,112.6 0.06,0.44 0.5,0.44 l 36.29,-0.03 q 0.54,0 0.49,-0.53 c -2.49,-28.04 -11.99,-57.48 -23.68,-82.97"
       id="path6" />
    <path
       stroke="#8e8787"
       vector-effect="non-scaling-stroke"
       d="m 449.52,342.8 q 39.74,-0.2 79.47,-0.04 18.09,0.08 20,0.19 c 53.54,3.28 97.03,49.39 89.21,104 -2.7,18.84 -13.9,38.21 -27.51,50.98 q -19.86,18.65 -47.2,20.93 -3.32,0.28 -19.99,0.31 -22.13,0.04 -44.25,0.13 c -36.08,0.13 -76.88,9.8 -108.15,29.8 -4.89,3.13 -26.96,19.01 -26.9,24.39 q 0.16,12.11 0.2,24.21 a 0.12,0.12 0 0 0 0.19,0.09 q 52.22,-42.71 119.17,-47.11 6.57,-0.43 19.98,-0.47 20.01,-0.06 40,-0.12 14.18,-0.04 19.99,-0.53 51.34,-4.35 82.41,-44.47 c 22.34,-28.85 28.45,-66.55 19.22,-101.27 -7.47,-28.14 -25.8,-52.82 -49.66,-69.26 q -32.79,-22.58 -73.01,-22.07 c -40.89,0.52 -81.88,-0.01 -122.79,0.04 q -0.55,0 -0.55,0.54 l 0.04,193.67 q 0,0.59 0.57,0.42 l 28.2,-8.49 q 0.98,-0.3 0.98,-1.33 l -0.08,-154.08 q 0,-0.46 0.46,-0.46"
       id="path8" />
    <path
       stroke="#8e8787"
       vector-effect="non-scaling-stroke"
       d="m 565.81,472.02 q -10.88,7.9 -24.59,9.39 -0.51,0.06 -0.52,0.57 l -0.35,13.4 a 1.04,1.03 3.5 0 0 0.94,1.06 c 19.32,1.82 38.05,-2.04 52.9,-14.99 24.03,-20.94 26.91,-58.18 9.01,-84.11 -10.95,-15.87 -27.91,-26.48 -46.9,-29.88 q -6.34,-1.14 -19.94,-1.28 -30.74,-0.32 -61.53,-0.22 -0.56,0.01 -0.56,0.57 l 0.18,29.67 a 0.53,0.53 0 0 0 0.54,0.53 q 32.01,-0.29 64.13,-0.11 9.88,0.06 15.13,1.49 c 25.59,6.95 37.59,35.3 24.46,58.56 q -1.45,2.59 -5.83,8.23 -3.52,4.54 -7.07,7.12"
       id="path10" />
    <path
       stroke="#8e8787"
       vector-effect="non-scaling-stroke"
       d="m 301.37,426.25 q -18.84,48.95 -15.98,99.8 c 1,17.85 4.55,35.3 10.2,52.21 q 3.74,11.22 9.3,21.75 a 0.37,0.36 39.7 0 0 0.67,-0.06 q 5.34,-16.52 17.28,-29.08 a 1.11,1.08 -25.7 0 0 0.3,-0.82 c -0.07,-1.06 0.09,-2.01 -0.29,-3 -11.56,-30.5 -12.88,-65.17 -5.7,-96.86 2.91,-12.85 7.97,-25.89 13.03,-39.66 q 2.21,-6.03 2.77,-13.5 0.04,-0.49 -0.22,-0.91 -2.41,-3.95 -5.05,-7.75 -2.75,-3.95 -4.97,-8.16 -2.11,-3.98 -4.26,-8.06 a 0.46,0.46 0 0 0 -0.8,-0.02 q -8.78,14.65 -16.28,34.12"
       id="path12" />
    <path
       stroke="#8e8787"
       vector-effect="non-scaling-stroke"
       d="M 504.23,611.02 700.45,611 a 1.45,1.45 0 0 0 1.06,-0.46 q 1.24,-1.3 2.74,-3.55 10.89,-16.24 15.96,-33.72 5.8,-19.99 7.24,-40.79 1.48,-21.33 0.46,-36.99 -3.32,-51.27 -28.94,-97.46 -0.22,-0.4 -0.38,0.04 -1.77,4.99 -3.78,9.89 c -1.71,4.18 -4.59,8.69 -6.53,13.27 q -0.96,2.27 -0.89,4.96 0.16,5.78 0.16,11.6 0,2.86 0.98,5.56 5.14,14.15 8.09,26.53 c 6.58,27.6 6.47,58.48 -2.76,85.87 q -4.11,12.2 -14.25,20.13 c -2.28,1.78 -4.66,3.12 -7.75,3.12 q -98.43,0.09 -196.57,0.01 a 1,1 0 0 0 -1,1 l -0.02,220.12 a 0.92,0.91 -88 0 0 0.85,0.92 l 27.28,1.79 a 1,1 0 0 0 1.07,-1 V 611.78 a 0.76,0.76 0 0 1 0.76,-0.76"
       id="path14" />
    <path
       stroke="#8e8787"
       vector-effect="non-scaling-stroke"
       d="m 218.75,507.89 a 0.55,0.55 0 0 0 -0.55,0.56 l 0.41,25.98 a 0.55,0.55 0 0 0 0.55,0.54 l 37.3,0.02 a 0.55,0.55 0 0 0 0.55,-0.56 l -0.35,-26.06 a 0.55,0.55 0 0 0 -0.55,-0.54 l -37.36,0.06"
       id="path16" />
    <path
       stroke="#8e8787"
       vector-effect="non-scaling-stroke"
       d="m 758.47,507.87 a 0.31,0.31 0 0 0 -0.31,0.31 l -0.3,26.52 a 0.31,0.31 0 0 0 0.31,0.31 l 37.61,-0.02 a 0.31,0.31 0 0 0 0.31,-0.31 L 796,508.15 a 0.31,0.31 0 0 0 -0.31,-0.31 l -37.22,0.03"
       id="path18" />
    <path
       stroke="#8e8787"
       vector-effect="non-scaling-stroke"
       d="M 307.58,667.64 C 283.18,636.31 267.23,600.45 260,560.72 a 0.67,0.67 0 0 0 -0.66,-0.55 l -36.65,-0.1 q -0.51,0 -0.42,0.5 16.8,95.49 85.31,163.43 a 0.42,0.41 22.5 0 0 0.71,-0.29 l 0.04,-53.9 a 3.52,3.48 -64.4 0 0 -0.75,-2.17"
       id="path20" />
    <path
       stroke="#8e8787"
       vector-effect="non-scaling-stroke"
       d="m 746.42,592.94 c -2.85,7.45 -5.03,14.27 -8.16,20.74 -2.97,6.15 -5.61,12.5 -8.95,18.25 q -5.63,9.69 -11.54,19.22 c -3.16,5.1 -7.46,10.42 -10.98,15.87 a 5.61,5.56 61.6 0 0 -0.89,3.03 l 0.14,53.24 q 0,0.83 0.58,0.23 5.68,-5.91 11.41,-12 c 36.12,-38.45 60.49,-86.36 71.95,-137.76 q 1.41,-6.3 1.98,-12.9 0.05,-0.56 -0.51,-0.56 l -36.06,-0.27 a 0.69,0.68 -84.6 0 0 -0.68,0.57 q -3.36,19.41 -8.29,32.34"
       id="path22" />
    <path
       stroke="#8e8787"
       vector-effect="non-scaling-stroke"
       d="m 420.79,789.64 c 8.84,2.63 18.65,5.43 27.85,6.83 q 0.57,0.09 0.57,-0.49 l -0.22,-201.53 q 0,-0.34 -0.34,-0.3 -14.73,1.48 -28.92,5.68 a 0.61,0.61 0 0 0 -0.43,0.58 l 0.02,187.27 q 0,1.53 1.47,1.96"
       id="path24" />
    <path
       stroke="#8e8787"
       vector-effect="non-scaling-stroke"
       d="m 366.11,766.25 26.8,13.08 a 0.43,0.43 0 0 0 0.62,-0.38 q 0.39,-82 -0.02,-164.2 -0.01,-2.49 -0.36,-5.9 -0.05,-0.54 -0.51,-0.27 c -5.38,3.07 -28.5,17.54 -28.49,23.67 q 0.16,65.52 0.1,131.01 a 3.33,3.32 -77 0 0 1.86,2.99"
       id="path26" />
    <path
       stroke="#8e8787"
       vector-effect="non-scaling-stroke"
       d="m 661.69,646.87 a 0.77,0.77 0 0 0 -0.68,-1.12 l -129.24,-0.02 q -0.51,0 -0.51,0.51 l -0.04,27.54 q 0,0.55 0.55,0.55 45.9,-0.02 91.8,-0.06 c 8.37,-0.01 14.66,-0.91 20.72,-5.7 q 10.47,-8.27 17.4,-21.7"
       id="path28" />
    <path
       stroke="#8e8787"
       vector-effect="non-scaling-stroke"
       d="m 555.47,795.73 q 0.01,0.76 0.77,0.68 5.93,-0.65 12.26,-1.97 58.68,-12.22 106.91,-47.56 0.4,-0.29 0.52,-0.77 0.35,-1.41 0.36,-2.86 0.12,-22.88 -0.24,-45.73 a 0.41,0.4 67 0 0 -0.69,-0.28 q -41.93,41.67 -99.91,55.31 -8.56,2.01 -19.5,4.21 a 0.77,0.76 -5.5 0 0 -0.62,0.75 l 0.14,38.22"
       id="path30" />
  </g>
  <g
     id="layer1">
    <rect
       style="fill:#ffffff;stroke:#ffffff;stroke-width:1.88976;stroke-linecap:round;stroke-linejoin:round;stroke-miterlimit:4.3"
       id="rect353"
       width="846.50665"
       height="815.29907"
       x="79.969521"
       y="78.019051"
       ry="6.9614024" />
  </g>
  <path
     fill="#1c192e"
     d="M 0,0 H 1024 V 1024 H 0 Z m 580.05,280.58 a 0.35,0.35 0 0 1 0.29,-0.63 c 34.82,11.59 69.49,30.61 95.29,56.88 a 0.39,0.39 0 0 0 0.67,-0.28 q -0.03,-22.79 0.02,-45.53 0,-0.85 -0.27,-1.49 -0.4,-0.97 -0.83,-1.29 C 603.97,236 515.27,221.18 430,242.93 q -51.16,13.05 -93.91,45.76 -0.53,0.4 0.13,0.4 13.27,0.01 26.53,-0.23 0.57,-0.01 0.79,-0.35 a 0.38,0.38 0 0 1 0.7,0.2 l 0.06,249.05 q 0,0.94 0.73,0.35 13.02,-10.32 27.63,-18.28 0.5,-0.27 0.64,-0.81 0.33,-1.25 0.33,-3.02 0.24,-112 -0.11,-224 0,-1.3 0.3,-3.2 0.09,-0.55 0.58,-0.27 c 1.52,0.89 2.46,0.38 3.88,0.38 q 83.99,-0.01 167.97,-0.04 8.49,-0.01 15.11,-5.26 0.51,-0.4 0.31,-1.01 -0.42,-1.28 -1.62,-2.02 z m -341.9,132.37 c -2.16,6.35 -5.35,12.45 -6.93,18.95 -4.02,16.58 -8.17,31.16 -10.25,49.71 q -0.07,0.56 0.5,0.56 h 36.81 q 0.52,0 0.59,-0.5 9.68,-64.85 49.1,-116.96 a 1.65,1.65 0 0 0 0.33,-0.99 l -0.11,-52.95 a 0.43,0.43 0 0 0 -0.73,-0.31 q -17.48,16.25 -32.08,35.32 c -4.61,6.02 -9.02,13.05 -13.35,19.69 -7.99,12.23 -14.19,24.76 -20.16,37.78 q -1.66,3.63 -3.72,9.7 z m 531.2,-14.28 q -22.94,-50.05 -62.96,-87.94 -0.57,-0.54 -0.57,0.25 l 0.2,51.9 q 0,0.46 0.25,0.84 c 1.17,1.8 2.24,3.72 3.52,5.44 q 37.36,50.26 45.96,112.6 0.06,0.44 0.5,0.44 l 36.29,-0.03 q 0.54,0 0.49,-0.53 C 790.54,453.6 781.04,424.16 769.35,398.67 Z M 449.52,342.8 q 39.74,-0.2 79.47,-0.04 18.09,0.08 20,0.19 c 53.54,3.28 97.03,49.39 89.21,104 -2.7,18.84 -13.9,38.21 -27.51,50.98 q -19.86,18.65 -47.2,20.93 -3.32,0.28 -19.99,0.31 -22.13,0.04 -44.25,0.13 c -36.08,0.13 -76.88,9.8 -108.15,29.8 -4.89,3.13 -26.96,19.01 -26.9,24.39 q 0.16,12.11 0.2,24.21 a 0.12,0.12 0 0 0 0.19,0.09 q 52.22,-42.71 119.17,-47.11 6.57,-0.43 19.98,-0.47 20.01,-0.06 40,-0.12 14.18,-0.04 19.99,-0.53 51.34,-4.35 82.41,-44.47 c 22.34,-28.85 28.45,-66.55 19.22,-101.27 -7.47,-28.14 -25.8,-52.82 -49.66,-69.26 q -32.79,-22.58 -73.01,-22.07 c -40.89,0.52 -81.88,-0.01 -122.79,0.04 q -0.55,0 -0.55,0.54 l 0.04,193.67 q 0,0.59 0.57,0.42 l 28.2,-8.49 q 0.98,-0.3 0.98,-1.33 l -0.08,-154.08 q 0,-0.46 0.46,-0.46 z m 116.29,129.22 q -10.88,7.9 -24.59,9.39 -0.51,0.06 -0.52,0.57 l -0.35,13.4 a 1.04,1.03 3.5 0 0 0.94,1.06 c 19.32,1.82 38.05,-2.04 52.9,-14.99 24.03,-20.94 26.91,-58.18 9.01,-84.11 -10.95,-15.87 -27.91,-26.48 -46.9,-29.88 q -6.34,-1.14 -19.94,-1.28 -30.74,-0.32 -61.53,-0.22 -0.56,0.01 -0.56,0.57 l 0.18,29.67 a 0.53,0.53 0 0 0 0.54,0.53 q 32.01,-0.29 64.13,-0.11 9.88,0.06 15.13,1.49 c 25.59,6.95 37.59,35.3 24.46,58.56 q -1.45,2.59 -5.83,8.23 -3.52,4.54 -7.07,7.12 z M 301.37,426.25 q -18.84,48.95 -15.98,99.8 c 1,17.85 4.55,35.3 10.2,52.21 q 3.74,11.22 9.3,21.75 a 0.37,0.36 39.7 0 0 0.67,-0.06 q 5.34,-16.52 17.28,-29.08 a 1.08,1.11 64.3 0 0 0.3,-0.82 c -0.07,-1.06 0.09,-2.01 -0.29,-3 -11.56,-30.5 -12.88,-65.17 -5.7,-96.86 2.91,-12.85 7.97,-25.89 13.03,-39.66 q 2.21,-6.03 2.77,-13.5 0.04,-0.49 -0.22,-0.91 -2.41,-3.95 -5.05,-7.75 -2.75,-3.95 -4.97,-8.16 -2.11,-3.98 -4.26,-8.06 a 0.46,0.46 0 0 0 -0.8,-0.02 q -8.78,14.65 -16.28,34.12 z M 504.23,611.02 700.45,611 a 1.45,1.45 0 0 0 1.06,-0.46 q 1.24,-1.3 2.74,-3.55 10.89,-16.24 15.96,-33.72 5.8,-19.99 7.24,-40.79 1.48,-21.33 0.46,-36.99 -3.32,-51.27 -28.94,-97.46 -0.22,-0.4 -0.38,0.04 -1.77,4.99 -3.78,9.89 c -1.71,4.18 -4.59,8.69 -6.53,13.27 q -0.96,2.27 -0.89,4.96 0.16,5.78 0.16,11.6 0,2.86 0.98,5.56 5.14,14.15 8.09,26.53 c 6.58,27.6 6.47,58.48 -2.76,85.87 q -4.11,12.2 -14.25,20.13 c -2.28,1.78 -4.66,3.12 -7.75,3.12 q -98.43,0.09 -196.57,0.01 a 1,1 0 0 0 -1,1 l -0.02,220.12 a 0.91,0.92 2 0 0 0.85,0.92 l 27.28,1.79 a 1,1 0 0 0 1.07,-1 V 611.78 a 0.76,0.76 0 0 1 0.76,-0.76 z M 218.75,507.89 a 0.55,0.55 0 0 0 -0.55,0.56 l 0.41,25.98 a 0.55,0.55 0 0 0 0.55,0.54 l 37.3,0.02 a 0.55,0.55 0 0 0 0.55,-0.56 l -0.35,-26.06 a 0.55,0.55 0 0 0 -0.55,-0.54 z m 539.72,-0.02 a 0.31,0.31 0 0 0 -0.31,0.31 l -0.3,26.52 a 0.31,0.31 0 0 0 0.31,0.31 l 37.61,-0.02 a 0.31,0.31 0 0 0 0.31,-0.31 L 796,508.15 a 0.31,0.31 0 0 0 -0.31,-0.31 z M 307.58,667.64 C 283.18,636.31 267.23,600.45 260,560.72 a 0.67,0.67 0 0 0 -0.66,-0.55 l -36.65,-0.1 q -0.51,0 -0.42,0.5 16.8,95.49 85.31,163.43 a 0.42,0.41 22.5 0 0 0.71,-0.29 l 0.04,-53.9 a 3.48,3.52 25.6 0 0 -0.75,-2.17 z m 438.84,-74.7 c -2.85,7.45 -5.03,14.27 -8.16,20.74 -2.97,6.15 -5.61,12.5 -8.95,18.25 q -5.63,9.69 -11.54,19.22 c -3.16,5.1 -7.46,10.42 -10.98,15.87 a 5.61,5.56 61.6 0 0 -0.89,3.03 l 0.14,53.24 q 0,0.83 0.58,0.23 5.68,-5.91 11.41,-12 c 36.12,-38.45 60.49,-86.36 71.95,-137.76 q 1.41,-6.3 1.98,-12.9 0.05,-0.56 -0.51,-0.56 l -36.06,-0.27 a 0.68,0.69 5.4 0 0 -0.68,0.57 q -3.36,19.41 -8.29,32.34 z m -325.63,196.7 c 8.84,2.63 18.65,5.43 27.85,6.83 q 0.57,0.09 0.57,-0.49 l -0.22,-201.53 q 0,-0.34 -0.34,-0.3 -14.73,1.48 -28.92,5.68 a 0.61,0.61 0 0 0 -0.43,0.58 l 0.02,187.27 q 0,1.53 1.47,1.96 z m -54.68,-23.39 26.8,13.08 a 0.43,0.43 0 0 0 0.62,-0.38 q 0.39,-82 -0.02,-164.2 -0.01,-2.49 -0.36,-5.9 -0.05,-0.54 -0.51,-0.27 c -5.38,3.07 -28.5,17.54 -28.49,23.67 q 0.16,65.52 0.1,131.01 a 3.32,3.33 13 0 0 1.86,2.99 z M 661.69,646.87 a 0.77,0.77 0 0 0 -0.68,-1.12 l -129.24,-0.02 q -0.51,0 -0.51,0.51 l -0.04,27.54 q 0,0.55 0.55,0.55 45.9,-0.02 91.8,-0.06 c 8.37,-0.01 14.66,-0.91 20.72,-5.7 q 10.47,-8.27 17.4,-21.7 z M 555.47,795.73 q 0.01,0.76 0.77,0.68 5.93,-0.65 12.26,-1.97 58.68,-12.22 106.91,-47.56 0.4,-0.29 0.52,-0.77 0.35,-1.41 0.36,-2.86 0.12,-22.88 -0.24,-45.73 a 0.41,0.4 67 0 0 -0.69,-0.28 q -41.93,41.67 -99.91,55.31 -8.56,2.01 -19.5,4.21 a 0.76,0.77 84.5 0 0 -0.62,0.75 z"
     id="path34"
     style="display:inline" />
  <path
     fill="#fff5df"
     d="m 580.05,280.58 q 1.2,0.74 1.62,2.02 0.2,0.61 -0.31,1.01 -6.62,5.25 -15.11,5.26 -83.98,0.03 -167.97,0.04 c -1.42,0 -2.36,0.51 -3.88,-0.38 q -0.49,-0.28 -0.58,0.27 -0.3,1.9 -0.3,3.2 0.35,112 0.11,224 0,1.77 -0.33,3.02 -0.14,0.54 -0.64,0.81 -14.61,7.96 -27.63,18.28 -0.73,0.59 -0.73,-0.35 l -0.06,-249.05 a 0.38,0.38 0 0 0 -0.7,-0.2 q -0.22,0.34 -0.79,0.35 -13.26,0.24 -26.53,0.23 -0.66,0 -0.13,-0.4 42.75,-32.71 93.91,-45.76 c 85.27,-21.75 173.97,-6.93 245.22,45.31 q 0.43,0.32 0.83,1.29 0.27,0.64 0.27,1.49 -0.05,22.74 -0.02,45.53 a 0.39,0.39 0 0 1 -0.67,0.28 c -25.8,-26.27 -60.47,-45.29 -95.29,-56.88 a 0.35,0.35 0 0 0 -0.29,0.63 z"
     id="path36"
     style="display:none" />
  <path
     fill="#fff5df"
     d="m 231.22,431.9 c 1.58,-6.5 4.77,-12.6 6.93,-18.95 q 2.06,-6.07 3.72,-9.7 c 5.97,-13.02 12.17,-25.55 20.16,-37.78 4.33,-6.64 8.74,-13.67 13.35,-19.69 q 14.6,-19.07 32.08,-35.32 a 0.43,0.43 0 0 1 0.73,0.31 l 0.11,52.95 a 1.65,1.65 0 0 1 -0.33,0.99 q -39.42,52.11 -49.1,116.96 -0.07,0.5 -0.59,0.5 h -36.81 q -0.57,0 -0.5,-0.56 c 2.08,-18.55 6.23,-33.13 10.25,-49.71 z"
     id="path38"
     style="display:none" />
  <path
     fill="#fff5df"
     d="m 769.35,398.67 c 11.69,25.49 21.19,54.93 23.68,82.97 q 0.05,0.53 -0.49,0.53 l -36.29,0.03 q -0.44,0 -0.5,-0.44 -8.6,-62.34 -45.96,-112.6 c -1.28,-1.72 -2.35,-3.64 -3.52,-5.44 q -0.25,-0.38 -0.25,-0.84 l -0.2,-51.9 q 0,-0.79 0.57,-0.25 40.02,37.89 62.96,87.94 z"
     id="path40"
     style="display:none" />
  <path
     fill="#fff5df"
     d="m 449.06,343.26 0.08,154.08 q 0,1.03 -0.98,1.33 l -28.2,8.49 q -0.57,0.17 -0.57,-0.42 l -0.04,-193.67 q 0,-0.54 0.55,-0.54 c 40.91,-0.05 81.9,0.48 122.79,-0.04 q 40.22,-0.51 73.01,22.07 c 23.86,16.44 42.19,41.12 49.66,69.26 9.23,34.72 3.12,72.42 -19.22,101.27 q -31.07,40.12 -82.41,44.47 -5.81,0.49 -19.99,0.53 -19.99,0.06 -40,0.12 -13.41,0.04 -19.98,0.47 -66.95,4.4 -119.17,47.11 a 0.12,0.12 0 0 1 -0.19,-0.09 q -0.04,-12.1 -0.2,-24.21 c -0.06,-5.38 22.01,-21.26 26.9,-24.39 31.27,-20 72.07,-29.67 108.15,-29.8 q 22.12,-0.09 44.25,-0.13 16.67,-0.03 19.99,-0.31 27.34,-2.28 47.2,-20.93 c 13.61,-12.77 24.81,-32.14 27.51,-50.98 7.82,-54.61 -35.67,-100.72 -89.21,-104 q -1.91,-0.11 -20,-0.19 -39.73,-0.16 -79.47,0.04 -0.46,0 -0.46,0.46 z"
     id="path42"
     style="display:none" />
  <path
     fill="#fff5df"
     d="m 572.88,464.9 q 4.38,-5.64 5.83,-8.23 c 13.13,-23.26 1.13,-51.61 -24.46,-58.56 q -5.25,-1.43 -15.13,-1.49 -32.12,-0.18 -64.13,0.11 a 0.53,0.53 0 0 1 -0.54,-0.53 l -0.18,-29.67 q 0,-0.56 0.56,-0.57 30.79,-0.1 61.53,0.22 13.6,0.14 19.94,1.28 c 18.99,3.4 35.95,14.01 46.9,29.88 17.9,25.93 15.02,63.17 -9.01,84.11 -14.85,12.95 -33.58,16.81 -52.9,14.99 a 1.04,1.03 3.5 0 1 -0.94,-1.06 l 0.35,-13.4 q 0.01,-0.51 0.52,-0.57 13.71,-1.49 24.59,-9.39 3.55,-2.58 7.07,-7.12 z"
     id="path44"
     style="display:none" />
  <path
     fill="#fff5df"
     d="m 301.37,426.25 q 7.5,-19.47 16.28,-34.12 a 0.46,0.46 0 0 1 0.8,0.02 q 2.15,4.08 4.26,8.06 2.22,4.21 4.97,8.16 2.64,3.8 5.05,7.75 0.26,0.42 0.22,0.91 -0.56,7.47 -2.77,13.5 c -5.06,13.77 -10.12,26.81 -13.03,39.66 -7.18,31.69 -5.86,66.36 5.7,96.86 0.38,0.99 0.22,1.94 0.29,3 a 1.08,1.11 64.3 0 1 -0.3,0.82 q -11.94,12.56 -17.28,29.08 a 0.37,0.36 39.7 0 1 -0.67,0.06 q -5.56,-10.53 -9.3,-21.75 c -5.65,-16.91 -9.2,-34.36 -10.2,-52.21 q -2.86,-50.85 15.98,-99.8 z"
     id="path46"
     style="display:none" />
  <path
     fill="#fff5df"
     d="m 504.23,611.02 a 0.76,0.76 0 0 0 -0.76,0.76 v 190.06 a 1,1 0 0 1 -1.07,1 l -27.28,-1.79 a 0.91,0.92 2 0 1 -0.85,-0.92 l 0.02,-220.12 a 1,1 0 0 1 1,-1 q 98.14,0.08 196.57,-0.01 c 3.09,0 5.47,-1.34 7.75,-3.12 q 10.14,-7.93 14.25,-20.13 c 9.23,-27.39 9.34,-58.27 2.76,-85.87 q -2.95,-12.38 -8.09,-26.53 -0.98,-2.7 -0.98,-5.56 0,-5.82 -0.16,-11.6 -0.07,-2.69 0.89,-4.96 c 1.94,-4.58 4.82,-9.09 6.53,-13.27 q 2.01,-4.9 3.78,-9.89 0.16,-0.44 0.38,-0.04 25.62,46.19 28.94,97.46 1.02,15.66 -0.46,36.99 -1.44,20.8 -7.24,40.79 -5.07,17.48 -15.96,33.72 -1.5,2.25 -2.74,3.55 a 1.45,1.45 0 0 1 -1.06,0.46 z"
     id="path48"
     style="display:none" />
  <path
     fill="#fff5df"
     d="m 218.75,507.89 37.36,-0.06 a 0.55,0.55 0 0 1 0.55,0.54 l 0.35,26.06 a 0.55,0.55 0 0 1 -0.55,0.56 l -37.3,-0.02 a 0.55,0.55 0 0 1 -0.55,-0.54 l -0.41,-25.98 a 0.55,0.55 0 0 1 0.55,-0.56 z"
     id="path50"
     style="display:none" />
  <path
     fill="#fff5df"
     d="m 758.47,507.87 37.22,-0.03 a 0.31,0.31 0 0 1 0.31,0.31 l 0.09,26.53 a 0.31,0.31 0 0 1 -0.31,0.31 l -37.61,0.02 a 0.31,0.31 0 0 1 -0.31,-0.31 l 0.3,-26.52 a 0.31,0.31 0 0 1 0.31,-0.31 z"
     id="path52"
     style="display:none" />
  <path
     fill="#fff5df"
     d="m 260,560.72 c 7.23,39.73 23.18,75.59 47.58,106.92 a 3.48,3.52 25.6 0 1 0.75,2.17 l -0.04,53.9 a 0.42,0.41 22.5 0 1 -0.71,0.29 q -68.51,-67.94 -85.31,-163.43 -0.09,-0.5 0.42,-0.5 l 36.65,0.1 a 0.67,0.67 0 0 1 0.66,0.55 z"
     id="path54"
     style="display:none" />
  <path
     fill="#fff5df"
     d="m 746.42,592.94 q 4.93,-12.93 8.29,-32.34 a 0.68,0.69 5.4 0 1 0.68,-0.57 l 36.06,0.27 q 0.56,0 0.51,0.56 -0.57,6.6 -1.98,12.9 c -11.46,51.4 -35.83,99.31 -71.95,137.76 q -5.73,6.09 -11.41,12 -0.58,0.6 -0.58,-0.23 l -0.14,-53.24 a 5.61,5.56 61.6 0 1 0.89,-3.03 c 3.52,-5.45 7.82,-10.77 10.98,-15.87 q 5.91,-9.53 11.54,-19.22 c 3.34,-5.75 5.98,-12.1 8.95,-18.25 3.13,-6.47 5.31,-13.29 8.16,-20.74 z"
     id="path56"
     style="display:none" />
  <path
     fill="#fff5df"
     d="m 448.64,796.47 c -9.2,-1.4 -19.01,-4.2 -27.85,-6.83 q -1.47,-0.43 -1.47,-1.96 L 419.3,600.41 a 0.61,0.61 0 0 1 0.43,-0.58 q 14.19,-4.2 28.92,-5.68 0.34,-0.04 0.34,0.3 l 0.22,201.53 q 0,0.58 -0.57,0.49 z"
     id="path58"
     style="display:none" />
  <path
     fill="#fff5df"
     d="m 392.91,779.33 -26.8,-13.08 a 3.32,3.33 13 0 1 -1.86,-2.99 q 0.06,-65.49 -0.1,-131.01 c -0.01,-6.13 23.11,-20.6 28.49,-23.67 q 0.46,-0.27 0.51,0.27 0.35,3.41 0.36,5.9 0.41,82.2 0.02,164.2 a 0.43,0.43 0 0 1 -0.62,0.38 z"
     id="path60"
     style="display:none" />
  <path
     fill="#fff5df"
     d="m 661.69,646.87 q -6.93,13.43 -17.4,21.7 c -6.06,4.79 -12.35,5.69 -20.72,5.7 q -45.9,0.04 -91.8,0.06 -0.55,0 -0.55,-0.55 l 0.04,-27.54 q 0,-0.51 0.51,-0.51 l 129.24,0.02 a 0.77,0.77 0 0 1 0.68,1.12 z"
     id="path62"
     style="display:none" />
  <path
     fill="#fff5df"
     d="m 555.47,795.73 -0.14,-38.22 a 0.76,0.77 84.5 0 1 0.62,-0.75 q 10.94,-2.2 19.5,-4.21 57.98,-13.64 99.91,-55.31 a 0.41,0.4 67 0 1 0.69,0.28 q 0.36,22.85 0.24,45.73 -0.01,1.45 -0.36,2.86 -0.12,0.48 -0.52,0.77 -48.23,35.34 -106.91,47.56 -6.33,1.32 -12.26,1.97 -0.76,0.08 -0.77,-0.68 z"
     id="path64"
     style="display:none" />
</svg>
