<?xml version="1.0" standalone="no"?>
<!DOCTYPE svg PUBLIC "-//W3C//DTD SVG 20010904//EN"
 "http://www.w3.org/TR/2001/REC-SVG-20010904/DTD/svg10.dtd">
<svg version="1.0" xmlns="http://www.w3.org/2000/svg"
 width="1024.000000pt" height="1024.000000pt" viewBox="0 0 1024.000000 1024.000000"
 preserveAspectRatio="xMidYMid meet">
<metadata>
Created by potrace 1.14, written by Peter Selinger 2001-2017
</metadata>
<g transform="translate(0.000000,1024.000000) scale(0.100000,-0.100000)"
fill="#000000" stroke="none">
<path d="M0 5120 l0 -5120 5120 0 5120 0 0 5120 0 5120 -5120 0 -5120 0 0
-5120z m5385 2770 c222 -24 511 -95 718 -176 207 -82 450 -212 597 -320 l60
-44 0 -241 0 -241 -71 67 c-188 177 -464 345 -754 458 -128 49 -143 53 -127
35 10 -12 8 -18 -7 -32 -50 -45 -63 -46 -988 -46 l-873 0 0 -1142 c0 -629 -4
-1148 -8 -1154 -4 -6 -45 -35 -92 -63 -47 -29 -108 -70 -137 -92 -29 -21 -55
-39 -58 -39 -3 0 -5 560 -5 1245 l0 1245 -142 0 -142 0 69 51 c171 123 427
259 630 334 203 75 531 144 780 165 129 10 408 5 550 -10z m-2305 -1025 l0
-266 -89 -135 c-194 -292 -327 -619 -386 -946 l-17 -98 -189 0 c-150 0 -189 3
-189 13 0 33 44 255 76 381 111 441 352 868 693 1229 46 48 87 87 92 87 5 0 9
-117 9 -265z m4189 50 c344 -398 590 -939 656 -1442 l7 -53 -186 0 c-184 0
-186 0 -190 23 -3 12 -14 69 -25 127 -61 316 -184 611 -375 894 l-96 142 0
264 0 264 61 -59 c34 -33 100 -105 148 -160z m-1675 190 c318 -27 657 -224
863 -502 157 -211 233 -446 233 -717 0 -324 -107 -584 -334 -812 -179 -180
-380 -280 -638 -318 -80 -12 -189 -16 -445 -16 -386 0 -545 -10 -721 -46 -295
-59 -551 -173 -811 -359 -50 -36 -92 -65 -96 -65 -3 0 -5 57 -5 126 l0 126 64
63 c184 181 480 330 801 405 195 45 284 52 755 60 495 8 502 9 638 71 213 96
401 325 468 570 26 92 26 318 0 414 -86 328 -343 579 -692 677 -76 22 -97 22
-631 26 l-553 3 -2 -778 -3 -778 -135 -42 c-74 -23 -141 -42 -147 -42 -10 -1
-13 199 -13 969 l0 970 613 3 c623 2 670 2 791 -8z m28 -553 c247 -68 440
-256 504 -492 23 -86 24 -243 1 -328 -56 -211 -224 -380 -432 -436 -69 -19
-264 -31 -283 -18 -9 6 -11 27 -6 79 l7 71 46 6 c52 7 155 52 206 91 45 35
111 124 143 193 36 80 38 219 3 307 -33 83 -133 183 -216 216 -59 24 -67 24
-455 29 l-395 5 -3 153 -3 154 403 -4 c371 -4 409 -6 480 -26z m-2413 -278
c12 -26 45 -83 73 -126 l51 -80 -15 -66 c-9 -37 -39 -132 -68 -212 -97 -271
-126 -444 -117 -703 5 -175 29 -319 72 -447 14 -40 25 -80 25 -88 0 -8 -15
-33 -33 -56 -50 -60 -87 -123 -118 -195 l-27 -64 -32 62 c-42 84 -93 241 -124
381 -88 403 -44 883 119 1301 43 109 154 339 164 339 4 0 17 -21 30 -46z
m3846 -146 c110 -229 179 -461 211 -710 21 -164 15 -519 -10 -668 -24 -136
-60 -274 -96 -360 -35 -85 -111 -219 -138 -243 -17 -15 -106 -17 -1003 -19
l-984 -3 -3 -958 -2 -959 -58 6 c-31 3 -96 8 -145 12 l-87 6 2 1106 3 1107
1005 5 c743 4 1010 8 1025 17 37 21 113 109 139 161 65 128 102 359 93 586 -7
196 -28 307 -99 524 -24 74 -30 112 -31 185 -1 90 0 94 45 187 26 52 50 107
53 123 4 15 9 27 12 27 2 0 33 -60 68 -132z m-4485 -1103 l0 -135 -189 0 -188
0 -7 53 c-3 28 -6 89 -6 135 l0 82 195 0 195 0 0 -135z m5390 0 l0 -135 -190
0 -190 0 0 135 0 135 190 0 190 0 0 -135z m-5350 -442 c68 -345 230 -705 448
-998 22 -30 22 -34 20 -310 l-3 -279 -99 109 c-195 216 -343 427 -458 650
-141 275 -205 464 -293 863 l-5 22 189 0 190 0 11 -57z m5305 5 c-11 -86 -70
-304 -118 -438 -143 -403 -347 -738 -634 -1042 -48 -51 -91 -94 -95 -96 -5 -2
-8 120 -8 271 l0 275 45 63 c80 115 204 325 255 433 86 186 134 329 185 564 5
22 7 22 191 22 l186 0 -7 -52z m-3425 -1298 l0 -1010 -27 1 c-16 0 -82 15
-148 33 l-120 32 -3 946 -2 947 37 11 c49 13 203 43 251 49 9 1 12 -207 12
-1009z m-556 814 c11 -81 7 -1654 -4 -1654 -16 0 -274 131 -282 144 -4 6 -8
310 -8 675 l0 665 53 51 c46 44 212 164 228 165 4 0 9 -21 13 -46z m2665 -363
c-64 -114 -167 -210 -246 -230 -27 -7 -223 -11 -542 -11 l-501 0 0 140 0 140
656 0 655 0 -22 -39z m161 -720 l0 -249 -122 -80 c-219 -143 -428 -243 -672
-321 -138 -44 -337 -91 -385 -91 l-31 0 0 195 c0 194 0 195 23 200 12 3 65 14
117 25 393 85 735 259 1000 508 36 34 66 61 68 62 1 0 2 -112 2 -249z"/>
</g>
</svg>
